<?xml version="1.0" encoding="UTF-8" standalone="no"?>
<!DOCTYPE svg PUBLIC "-//W3C//DTD SVG 1.1//EN"
 "http://www.w3.org/Graphics/SVG/1.1/DTD/svg11.dtd">
<!-- Generated by graphviz version 2.40.1 (20161225.0304)
 -->
<!-- Title: NivelLexico Pages: 1 -->
<svg width="1455pt" height="133pt"
 viewBox="0.00 0.00 1454.87 132.80" xmlns="http://www.w3.org/2000/svg" xmlns:xlink="http://www.w3.org/1999/xlink">
<g id="graph0" class="graph" transform="scale(1 1) rotate(0) translate(4 128.8)">
<title>NivelLexico</title>
<polygon fill="#ffffff" stroke="transparent" points="-4,4 -4,-128.8 1450.8671,-128.8 1450.8671,4 -4,4"/>
<!-- INIT -->
<g id="node1" class="node">
<title>INIT</title>
<ellipse fill="none" stroke="#000000" cx="818.8281" cy="-106.8" rx="38.8382" ry="18"/>
<text text-anchor="middle" x="818.8281" y="-102.6" font-family="Times,serif" font-size="14.00" fill="#000000">Inicial&#45;</text>
</g>
<!-- Token_MULTIPLICADOR -->
<g id="node2" class="node">
<title>Token_MULTIPLICADOR</title>
<ellipse fill="none" stroke="#000000" cx="124.8281" cy="-18" rx="124.6565" ry="18"/>
<text text-anchor="middle" x="124.8281" y="-13.8" font-family="Times,serif" font-size="14.00" fill="#000000">Token_MULTIPLICADOR+</text>
</g>
<!-- INIT&#45;&gt;Token_MULTIPLICADOR -->
<g id="edge1" class="edge">
<title>INIT&#45;&gt;Token_MULTIPLICADOR</title>
<path fill="none" stroke="#000000" d="M780.511,-102.5418C722.3836,-96.029 608.4538,-83.0558 511.8281,-70.8 413.9699,-58.3879 302.3652,-43.0331 224.2344,-32.0876"/>
<polygon fill="#000000" stroke="#000000" points="224.3066,-28.5636 213.9174,-30.6407 223.3343,-35.4957 224.3066,-28.5636"/>
<text text-anchor="middle" x="515.3281" y="-58.2" font-family="Times,serif" font-size="14.00" fill="#000000">*</text>
</g>
<!-- Token_SUMA -->
<g id="node3" class="node">
<title>Token_SUMA</title>
<ellipse fill="none" stroke="#000000" cx="341.8281" cy="-18" rx="73.7545" ry="18"/>
<text text-anchor="middle" x="341.8281" y="-13.8" font-family="Times,serif" font-size="14.00" fill="#000000">Token_SUMA+</text>
</g>
<!-- INIT&#45;&gt;Token_SUMA -->
<g id="edge2" class="edge">
<title>INIT&#45;&gt;Token_SUMA</title>
<path fill="none" stroke="#000000" d="M782.0802,-100.6481C712.3051,-88.8672 555.8889,-61.9783 424.8281,-36 418.9909,-34.843 412.9312,-33.6034 406.8643,-32.336"/>
<polygon fill="#000000" stroke="#000000" points="407.1928,-28.8282 396.6854,-30.1865 405.7464,-35.6772 407.1928,-28.8282"/>
<text text-anchor="middle" x="612.7754" y="-58.2" font-family="Times,serif" font-size="14.00" fill="#000000">+</text>
</g>
<!-- Token_VARIABLE -->
<g id="node4" class="node">
<title>Token_VARIABLE</title>
<ellipse fill="none" stroke="#000000" cx="528.8281" cy="-18" rx="94.5809" ry="18"/>
<text text-anchor="middle" x="528.8281" y="-13.8" font-family="Times,serif" font-size="14.00" fill="#000000">Token_VARIABLE+</text>
</g>
<!-- INIT&#45;&gt;Token_VARIABLE -->
<g id="edge3" class="edge">
<title>INIT&#45;&gt;Token_VARIABLE</title>
<path fill="none" stroke="#000000" d="M786.1252,-96.7861C738.2767,-82.1346 648.3917,-54.6112 588.5563,-36.2892"/>
<polygon fill="#000000" stroke="#000000" points="589.4416,-32.8999 578.855,-33.3186 587.392,-39.5931 589.4416,-32.8999"/>
<text text-anchor="middle" x="712.2636" y="-58.2" font-family="Times,serif" font-size="14.00" fill="#000000">letra</text>
</g>
<!-- Token_NUMERO -->
<g id="node5" class="node">
<title>Token_NUMERO</title>
<ellipse fill="none" stroke="#000000" cx="818.8281" cy="-18" rx="87.64" ry="18"/>
<text text-anchor="middle" x="818.8281" y="-13.8" font-family="Times,serif" font-size="14.00" fill="#000000">Token_NUMERO+</text>
</g>
<!-- INIT&#45;&gt;Token_NUMERO -->
<g id="edge4" class="edge">
<title>INIT&#45;&gt;Token_NUMERO</title>
<path fill="none" stroke="#000000" d="M818.8281,-88.4006C818.8281,-76.2949 818.8281,-60.2076 818.8281,-46.4674"/>
<polygon fill="#000000" stroke="#000000" points="822.3282,-46.072 818.8281,-36.072 815.3282,-46.0721 822.3282,-46.072"/>
<text text-anchor="middle" x="840.211" y="-58.2" font-family="Times,serif" font-size="14.00" fill="#000000">numero</text>
</g>
<!-- FDT -->
<g id="node6" class="node">
<title>FDT</title>
<ellipse fill="none" stroke="#000000" cx="1013.8281" cy="-18" rx="29.0529" ry="18"/>
<text text-anchor="middle" x="1013.8281" y="-13.8" font-family="Times,serif" font-size="14.00" fill="#000000">FDT</text>
</g>
<!-- INIT&#45;&gt;FDT -->
<g id="edge7" class="edge">
<title>INIT&#45;&gt;FDT</title>
<path fill="none" stroke="#000000" d="M846.9775,-94.2965C878.453,-80.2712 930.9103,-56.7642 975.8281,-36 977.6172,-35.173 979.4516,-34.3202 981.3019,-33.4562"/>
<polygon fill="#000000" stroke="#000000" points="982.9865,-36.5318 990.5488,-29.1114 980.0097,-30.1963 982.9865,-36.5318"/>
<text text-anchor="middle" x="965.6812" y="-58.2" font-family="Times,serif" font-size="14.00" fill="#000000">Fin Entrada</text>
</g>
<!-- Token_LBRACKET -->
<g id="node7" class="node">
<title>Token_LBRACKET</title>
<ellipse fill="none" stroke="#000000" cx="1152.8281" cy="-18" rx="91.4963" ry="18"/>
<text text-anchor="middle" x="1152.8281" y="-13.8" font-family="Times,serif" font-size="14.00" fill="#000000">Token_LBRACKET</text>
</g>
<!-- INIT&#45;&gt;Token_LBRACKET -->
<g id="edge5" class="edge">
<title>INIT&#45;&gt;Token_LBRACKET</title>
<path fill="none" stroke="#000000" d="M855.8473,-101.1815C893.265,-95.1241 952.5773,-84.4822 1002.8281,-70.8 1036.5733,-61.612 1073.6517,-48.5881 1102.5014,-37.7745"/>
<polygon fill="#000000" stroke="#000000" points="1103.8372,-41.0114 1111.9531,-34.2008 1101.3615,-34.4638 1103.8372,-41.0114"/>
<text text-anchor="middle" x="1064.1057" y="-58.2" font-family="Times,serif" font-size="14.00" fill="#000000">(+</text>
</g>
<!-- Token_RBRACKET -->
<g id="node8" class="node">
<title>Token_RBRACKET</title>
<ellipse fill="none" stroke="#000000" cx="1354.8281" cy="-18" rx="92.0779" ry="18"/>
<text text-anchor="middle" x="1354.8281" y="-13.8" font-family="Times,serif" font-size="14.00" fill="#000000">Token_RBRACKET</text>
</g>
<!-- INIT&#45;&gt;Token_RBRACKET -->
<g id="edge6" class="edge">
<title>INIT&#45;&gt;Token_RBRACKET</title>
<path fill="none" stroke="#000000" d="M856.6489,-102.0426C906.6763,-95.6214 997.5482,-83.513 1074.8281,-70.8 1144.9348,-59.267 1224.5108,-44.0553 1280.8635,-32.9229"/>
<polygon fill="#000000" stroke="#000000" points="1281.6264,-36.3399 1290.7557,-30.9635 1280.2662,-29.4733 1281.6264,-36.3399"/>
<text text-anchor="middle" x="1174.1057" y="-58.2" font-family="Times,serif" font-size="14.00" fill="#000000">)+</text>
</g>
<!-- Token_VARIABLE&#45;&gt;Token_VARIABLE -->
<g id="edge8" class="edge">
<title>Token_VARIABLE&#45;&gt;Token_VARIABLE</title>
<path fill="none" stroke="#000000" d="M614.4056,-25.8265C630.3731,-24.8627 641.6184,-22.2539 641.6184,-18 641.6184,-14.7099 634.8914,-12.4038 624.4555,-11.0819"/>
<polygon fill="#000000" stroke="#000000" points="624.6802,-7.588 614.4056,-10.1735 624.0499,-14.5596 624.6802,-7.588"/>
<text text-anchor="middle" x="677.1868" y="-13.8" font-family="Times,serif" font-size="14.00" fill="#000000">letra,numero</text>
</g>
<!-- Token_NUMERO&#45;&gt;Token_NUMERO -->
<g id="edge9" class="edge">
<title>Token_NUMERO&#45;&gt;Token_NUMERO</title>
<path fill="none" stroke="#000000" d="M897.7431,-25.9096C913.4486,-25.0193 924.648,-22.3828 924.648,-18 924.648,-14.6444 918.0831,-12.3125 907.9572,-11.0041"/>
<polygon fill="#000000" stroke="#000000" points="908.0152,-7.4954 897.7431,-10.0904 907.3914,-14.4676 908.0152,-7.4954"/>
<text text-anchor="middle" x="946.0309" y="-13.8" font-family="Times,serif" font-size="14.00" fill="#000000">numero</text>
</g>
</g>
</svg>
