<?xml version="1.0" encoding="UTF-8" standalone="no"?>
<!DOCTYPE svg PUBLIC "-//W3C//DTD SVG 1.1//EN"
 "http://www.w3.org/Graphics/SVG/1.1/DTD/svg11.dtd">
<!-- Generated by graphviz version 2.40.1 (20161225.0304)
 -->
<!-- Title: NivelLexico Pages: 1 -->
<svg width="193pt" height="310pt"
 viewBox="0.00 0.00 193.06 310.40" xmlns="http://www.w3.org/2000/svg" xmlns:xlink="http://www.w3.org/1999/xlink">
<g id="graph0" class="graph" transform="scale(1 1) rotate(0) translate(4 306.4)">
<title>NivelLexico</title>
<polygon fill="#ffffff" stroke="transparent" points="-4,4 -4,-306.4 189.056,-306.4 189.056,4 -4,4"/>
<!-- INIT -->
<g id="node1" class="node">
<title>INIT</title>
<ellipse fill="none" stroke="#000000" cx="112.2902" cy="-284.4" rx="38.8382" ry="18"/>
<text text-anchor="middle" x="112.2902" y="-280.2" font-family="Times,serif" font-size="14.00" fill="#000000">Inicial&#45;</text>
</g>
<!-- VARIABLE -->
<g id="node2" class="node">
<title>VARIABLE</title>
<ellipse fill="none" stroke="#000000" cx="65.2902" cy="-195.6" rx="65.081" ry="18"/>
<text text-anchor="middle" x="65.2902" y="-191.4" font-family="Times,serif" font-size="14.00" fill="#000000">VARIABLE+</text>
</g>
<!-- INIT&#45;&gt;VARIABLE -->
<g id="edge1" class="edge">
<title>INIT&#45;&gt;VARIABLE</title>
<path fill="none" stroke="#000000" d="M103.0045,-266.856C96.2892,-254.1684 87.0935,-236.7943 79.4635,-222.3785"/>
<polygon fill="#000000" stroke="#000000" points="82.4889,-220.6126 74.7175,-213.4115 76.302,-223.8872 82.4889,-220.6126"/>
<text text-anchor="middle" x="115.833" y="-235.8" font-family="Times,serif" font-size="14.00" fill="#000000">variable</text>
</g>
<!-- NUMERO -->
<g id="node3" class="node">
<title>NUMERO</title>
<ellipse fill="none" stroke="#000000" cx="125.2902" cy="-18" rx="58.1402" ry="18"/>
<text text-anchor="middle" x="125.2902" y="-13.8" font-family="Times,serif" font-size="14.00" fill="#000000">NUMERO+</text>
</g>
<!-- INIT&#45;&gt;NUMERO -->
<g id="edge2" class="edge">
<title>INIT&#45;&gt;NUMERO</title>
<path fill="none" stroke="#000000" d="M129.9986,-268.0355C134.9504,-262.3546 139.6868,-255.5908 142.2902,-248.4 144.832,-241.3793 142.4373,-239.0652 142.2902,-231.6 140.7343,-152.6207 147.4987,-132.0455 135.2902,-54 134.8723,-51.3284 134.3253,-48.5722 133.7024,-45.8299"/>
<polygon fill="#000000" stroke="#000000" points="137.0893,-44.9472 131.2084,-36.1343 130.31,-46.691 137.0893,-44.9472"/>
<text text-anchor="middle" x="163.6731" y="-147" font-family="Times,serif" font-size="14.00" fill="#000000">numero</text>
</g>
<!-- OPERADOR -->
<g id="node4" class="node">
<title>OPERADOR</title>
<ellipse fill="none" stroke="#000000" cx="63.2902" cy="-106.8" rx="63.1402" ry="18"/>
<text text-anchor="middle" x="63.2902" y="-102.6" font-family="Times,serif" font-size="14.00" fill="#000000">OPERADOR</text>
</g>
<!-- VARIABLE&#45;&gt;OPERADOR -->
<g id="edge3" class="edge">
<title>VARIABLE&#45;&gt;OPERADOR</title>
<path fill="none" stroke="#000000" d="M48.2345,-177.8984C44.0312,-172.4495 40.104,-166.149 37.8956,-159.6 34.8881,-150.6814 37.3724,-141.3119 41.7715,-132.9827"/>
<polygon fill="#000000" stroke="#000000" points="44.7898,-134.7572 47.1271,-124.4234 38.8557,-131.0442 44.7898,-134.7572"/>
<text text-anchor="middle" x="47.4875" y="-147" font-family="Times,serif" font-size="14.00" fill="#000000">+,*</text>
</g>
<!-- NUMERO&#45;&gt;OPERADOR -->
<g id="edge4" class="edge">
<title>NUMERO&#45;&gt;OPERADOR</title>
<path fill="none" stroke="#000000" d="M119.9717,-36.1258C116.3098,-46.8149 110.7532,-60.266 103.2902,-70.8 100.3281,-74.981 96.7993,-79.0228 93.0826,-82.7932"/>
<polygon fill="#000000" stroke="#000000" points="90.6658,-80.2615 85.8032,-89.6746 95.4746,-85.3484 90.6658,-80.2615"/>
<text text-anchor="middle" x="122.4875" y="-58.2" font-family="Times,serif" font-size="14.00" fill="#000000">+,*</text>
</g>
<!-- OPERADOR&#45;&gt;VARIABLE -->
<g id="edge5" class="edge">
<title>OPERADOR&#45;&gt;VARIABLE</title>
<path fill="none" stroke="#000000" d="M63.6972,-124.872C63.9709,-137.0243 64.3374,-153.2958 64.6498,-167.168"/>
<polygon fill="#000000" stroke="#000000" points="61.1514,-167.282 64.8758,-177.2006 68.1496,-167.1243 61.1514,-167.282"/>
<text text-anchor="middle" x="87.833" y="-147" font-family="Times,serif" font-size="14.00" fill="#000000">variable</text>
</g>
<!-- OPERADOR&#45;&gt;NUMERO -->
<g id="edge6" class="edge">
<title>OPERADOR&#45;&gt;NUMERO</title>
<path fill="none" stroke="#000000" d="M55.4657,-88.4883C52.1456,-77.7333 50.3037,-64.2782 56.5244,-54 60.9877,-46.6254 67.5142,-40.6884 74.794,-35.9312"/>
<polygon fill="#000000" stroke="#000000" points="76.6765,-38.8863 83.6074,-30.873 73.1921,-32.8151 76.6765,-38.8863"/>
<text text-anchor="middle" x="78.6731" y="-58.2" font-family="Times,serif" font-size="14.00" fill="#000000">numero</text>
</g>
</g>
</svg>
