<?xml version="1.0" encoding="UTF-8" standalone="no"?>
<!DOCTYPE svg PUBLIC "-//W3C//DTD SVG 1.1//EN"
 "http://www.w3.org/Graphics/SVG/1.1/DTD/svg11.dtd">
<!-- Generated by graphviz version 2.40.1 (20161225.0304)
 -->
<!-- Title: NivelLexico Pages: 1 -->
<svg width="1051pt" height="133pt"
 viewBox="0.00 0.00 1051.10 132.80" xmlns="http://www.w3.org/2000/svg" xmlns:xlink="http://www.w3.org/1999/xlink">
<g id="graph0" class="graph" transform="scale(1 1) rotate(0) translate(4 128.8)">
<title>NivelLexico</title>
<polygon fill="#ffffff" stroke="transparent" points="-4,4 -4,-128.8 1047.1037,-128.8 1047.1037,4 -4,4"/>
<!-- INIT -->
<g id="node1" class="node">
<title>INIT</title>
<ellipse fill="none" stroke="#000000" cx="528.8281" cy="-106.8" rx="38.8382" ry="18"/>
<text text-anchor="middle" x="528.8281" y="-102.6" font-family="Times,serif" font-size="14.00" fill="#000000">Inicial&#45;</text>
</g>
<!-- Token_MULTIPLICADOR -->
<g id="node2" class="node">
<title>Token_MULTIPLICADOR</title>
<ellipse fill="none" stroke="#000000" cx="124.8281" cy="-18" rx="124.6565" ry="18"/>
<text text-anchor="middle" x="124.8281" y="-13.8" font-family="Times,serif" font-size="14.00" fill="#000000">Token_MULTIPLICADOR+</text>
</g>
<!-- INIT&#45;&gt;Token_MULTIPLICADOR -->
<g id="edge1" class="edge">
<title>INIT&#45;&gt;Token_MULTIPLICADOR</title>
<path fill="none" stroke="#000000" d="M493.3299,-98.9974C428.8105,-84.8159 290.9043,-54.5039 203.3046,-35.2493"/>
<polygon fill="#000000" stroke="#000000" points="203.926,-31.8024 193.4077,-33.0739 202.4232,-38.6392 203.926,-31.8024"/>
<text text-anchor="middle" x="367.3281" y="-58.2" font-family="Times,serif" font-size="14.00" fill="#000000">*</text>
</g>
<!-- Token_SUMA -->
<g id="node3" class="node">
<title>Token_SUMA</title>
<ellipse fill="none" stroke="#000000" cx="341.8281" cy="-18" rx="73.7545" ry="18"/>
<text text-anchor="middle" x="341.8281" y="-13.8" font-family="Times,serif" font-size="14.00" fill="#000000">Token_SUMA+</text>
</g>
<!-- INIT&#45;&gt;Token_SUMA -->
<g id="edge2" class="edge">
<title>INIT&#45;&gt;Token_SUMA</title>
<path fill="none" stroke="#000000" d="M501.6367,-93.8877C471.0439,-79.3602 420.9382,-55.5667 384.9842,-38.4934"/>
<polygon fill="#000000" stroke="#000000" points="386.2431,-35.2166 375.7085,-34.0886 383.2404,-41.5399 386.2431,-35.2166"/>
<text text-anchor="middle" x="456.7754" y="-58.2" font-family="Times,serif" font-size="14.00" fill="#000000">+</text>
</g>
<!-- Token_VARIABLE -->
<g id="node4" class="node">
<title>Token_VARIABLE</title>
<ellipse fill="none" stroke="#000000" cx="528.8281" cy="-18" rx="94.5809" ry="18"/>
<text text-anchor="middle" x="528.8281" y="-13.8" font-family="Times,serif" font-size="14.00" fill="#000000">Token_VARIABLE+</text>
</g>
<!-- INIT&#45;&gt;Token_VARIABLE -->
<g id="edge3" class="edge">
<title>INIT&#45;&gt;Token_VARIABLE</title>
<path fill="none" stroke="#000000" d="M528.8281,-88.4006C528.8281,-76.2949 528.8281,-60.2076 528.8281,-46.4674"/>
<polygon fill="#000000" stroke="#000000" points="532.3282,-46.072 528.8281,-36.072 525.3282,-46.0721 532.3282,-46.072"/>
<text text-anchor="middle" x="541.2636" y="-58.2" font-family="Times,serif" font-size="14.00" fill="#000000">letra</text>
</g>
<!-- Token_NUMERO -->
<g id="node5" class="node">
<title>Token_NUMERO</title>
<ellipse fill="none" stroke="#000000" cx="818.8281" cy="-18" rx="87.64" ry="18"/>
<text text-anchor="middle" x="818.8281" y="-13.8" font-family="Times,serif" font-size="14.00" fill="#000000">Token_NUMERO+</text>
</g>
<!-- INIT&#45;&gt;Token_NUMERO -->
<g id="edge4" class="edge">
<title>INIT&#45;&gt;Token_NUMERO</title>
<path fill="none" stroke="#000000" d="M561.5311,-96.7861C609.6602,-82.0487 700.3204,-54.2879 760.1497,-35.9677"/>
<polygon fill="#000000" stroke="#000000" points="761.3055,-39.2743 769.8425,-32.9997 759.2559,-32.5811 761.3055,-39.2743"/>
<text text-anchor="middle" x="721.211" y="-58.2" font-family="Times,serif" font-size="14.00" fill="#000000">numero</text>
</g>
<!-- FDT -->
<g id="node6" class="node">
<title>FDT</title>
<ellipse fill="none" stroke="#000000" cx="1013.8281" cy="-18" rx="29.0529" ry="18"/>
<text text-anchor="middle" x="1013.8281" y="-13.8" font-family="Times,serif" font-size="14.00" fill="#000000">FDT</text>
</g>
<!-- INIT&#45;&gt;FDT -->
<g id="edge5" class="edge">
<title>INIT&#45;&gt;FDT</title>
<path fill="none" stroke="#000000" d="M567.6358,-104.3837C646.2422,-98.6827 829.2568,-81.2964 975.8281,-36 977.7636,-35.4019 979.7259,-34.7219 981.6866,-33.9849"/>
<polygon fill="#000000" stroke="#000000" points="983.473,-37.0313 991.3438,-29.939 980.7681,-30.575 983.473,-37.0313"/>
<text text-anchor="middle" x="937.6812" y="-58.2" font-family="Times,serif" font-size="14.00" fill="#000000">Fin Entrada</text>
</g>
<!-- Token_VARIABLE&#45;&gt;Token_VARIABLE -->
<g id="edge6" class="edge">
<title>Token_VARIABLE&#45;&gt;Token_VARIABLE</title>
<path fill="none" stroke="#000000" d="M614.4056,-25.8265C630.3731,-24.8627 641.6184,-22.2539 641.6184,-18 641.6184,-14.7099 634.8914,-12.4038 624.4555,-11.0819"/>
<polygon fill="#000000" stroke="#000000" points="624.6802,-7.588 614.4056,-10.1735 624.0499,-14.5596 624.6802,-7.588"/>
<text text-anchor="middle" x="677.1868" y="-13.8" font-family="Times,serif" font-size="14.00" fill="#000000">letra,numero</text>
</g>
<!-- Token_NUMERO&#45;&gt;Token_NUMERO -->
<g id="edge7" class="edge">
<title>Token_NUMERO&#45;&gt;Token_NUMERO</title>
<path fill="none" stroke="#000000" d="M897.7431,-25.9096C913.4486,-25.0193 924.648,-22.3828 924.648,-18 924.648,-14.6444 918.0831,-12.3125 907.9572,-11.0041"/>
<polygon fill="#000000" stroke="#000000" points="908.0152,-7.4954 897.7431,-10.0904 907.3914,-14.4676 908.0152,-7.4954"/>
<text text-anchor="middle" x="946.0309" y="-13.8" font-family="Times,serif" font-size="14.00" fill="#000000">numero</text>
</g>
</g>
</svg>
